<?xml version="1.0" encoding="UTF-8" standalone="no"?>
<!DOCTYPE svg PUBLIC "-//W3C//DTD SVG 1.1//EN"
"http://www.w3.org/Graphics/SVG/1.1/DTD/svg11.dtd">
<svg viewBox="0 0 934 1539" version="1.1" xmlns="http://www.w3.org/2000/svg" xmlns:xlink="http://www.w3.org/1999/xlink">
<defs>
<style type="text/css"><![CDATA[
.g0_1{
fill: #BFBFBF;
}
.g1_1{
fill: #C0C0C0;
}
.g2_1{
}
.g3_1{
fill: #FFFFFF;
}
.g4_1{
fill: #D9D9D9;
}
.g5_1{
fill: #F2F2F2;
}
.g6_1{
fill: #595959;
}
.g7_1{
fill: none;
stroke: #000000;
stroke-width: 0.15277778;
stroke-linecap: butt;
stroke-linejoin: miter;
}
.g8_1{
fill: #808080;
}
.g9_1{
fill: none;
stroke: #000000;
stroke-width: 0.40516666;
stroke-linecap: butt;
stroke-linejoin: round;
}
.g10_1{
fill: none;
stroke: #000000;
stroke-width: 0.40516666;
stroke-linecap: butt;
stroke-linejoin: miter;
stroke-miterlimit: 7;
}
]]></style>
</defs>
<path fill-rule="evenodd" d="M332.9,99h62.8V90.7H332.9V99Z" class="g0_1" />
<path fill-rule="evenodd" d="M33.5,173.2h78V165h-78v8.2Z" class="g1_1" />
<path fill-rule="evenodd" d="M228.4,173.2h72V165h-72v8.2Z" class="g1_1" />
<path fill-rule="evenodd" d="M33.5,189.7h362v-8.2H33.5v8.2Z" class="g2_1" />
<path fill-rule="evenodd" d="M33.5,198H50.4v-8.3H33.5V198Z" class="g1_1" />
<path fill-rule="evenodd" d="M50.4,198H195.7v-8.3H50.4V198Z" class="g0_1" />
<path fill-rule="evenodd" d="M195.7,198H395.5v-8.3H195.7V198Z" class="g3_1" />
<path fill-rule="evenodd" d="M33.5,206.2H300.4V198H33.5v8.2Z" class="g1_1" />
<path fill-rule="evenodd" d="M300.2,206.2h95.3V198H300.2v8.2Z" class="g4_1" />
<path fill-rule="evenodd" d="M33.5,231h362v-8.3H33.5V231Z" class="g2_1" />
<path fill-rule="evenodd" d="M33.5,239.2H50.4V231H33.5v8.2Z" class="g1_1" />
<path fill-rule="evenodd" d="M50.4,239.2h61.1V231H50.4v8.2Z" class="g0_1" />
<path fill-rule="evenodd" d="M33.5,247.5H195.9v-8.3H33.5v8.3Z" class="g1_1" />
<path fill-rule="evenodd" d="M195.7,247.5h32.6v-8.3H195.7v8.3Z" class="g0_1" />
<path fill-rule="evenodd" d="M228.4,247.5H395.5v-8.3H228.4v8.3Z" class="g1_1" />
<path fill-rule="evenodd" d="M33.5,255.7h362v-8.2H33.5v8.2Z" class="g4_1" />
<path fill-rule="evenodd" d="M33.5,272.2h362V264H33.5v8.2Z" class="g4_1" />
<path fill-rule="evenodd" d="M33.5,288.7H195.9v-8.2H33.5v8.2Z" class="g1_1" />
<path fill-rule="evenodd" d="M195.7,288.7h32.6v-8.2H195.7v8.2Z" class="g0_1" />
<path fill-rule="evenodd" d="M228.4,288.7H395.5v-8.2H228.4v8.2Z" class="g1_1" />
<path fill-rule="evenodd" d="M33.5,297h362v-8.3H33.5V297Z" class="g4_1" />
<path fill-rule="evenodd" d="M33.5,313.5h78v-8.3h-78v8.3Z" class="g4_1" />
<path fill-rule="evenodd" d="M111.5,313.5h284v-8.3h-284v8.3Z" class="g5_1" />
<path fill-rule="evenodd" d="M33.5,338.1h78V321.6h-78v16.5Z" class="g0_1" />
<path fill-rule="evenodd" d="M33.5,346.3h78v-8.2h-78v8.2Z" class="g0_1" />
<path fill-rule="evenodd" d="M33.5,354.6H195.9v-8.3H33.5v8.3Z" class="g0_1" />
<path fill-rule="evenodd" d="M33.5,362.8h362v-8.2H33.5v8.2Z" class="g3_1" />
<path fill-rule="evenodd" d="M33.5,371.1H195.9v-8.3H33.5v8.3Z" class="g1_1" />
<path fill-rule="evenodd" d="M195.7,371.1h32.6v-8.3H195.7v8.3Z" class="g0_1" />
<path fill-rule="evenodd" d="M228.4,371.1H395.5v-8.3H228.4v8.3Z" class="g1_1" />
<path fill-rule="evenodd" d="M33.5,384.8h362V371.2H33.5v13.6Z" class="g4_1" />
<path fill-rule="evenodd" d="M33.5,392.9H195.9v-8.2H33.5v8.2Z" class="g3_1" />
<path fill-rule="evenodd" d="M300.2,392.9h95.3v-8.2H300.2v8.2Z" class="g3_1" />
<path fill-rule="evenodd" d="M33.5,401.2h362v-8.3H33.5v8.3Z" class="g4_1" />
<path fill-rule="evenodd" d="M33.5,417.7h362v-8.3H33.5v8.3Z" class="g4_1" />
<path fill-rule="evenodd" d="M33.5,442.4H300.4v-8.2H33.5v8.2Z" class="g0_1" />
<path fill-rule="evenodd" d="M33.5,450.7h362v-8.3H33.5v8.3Z" class="g4_1" />
<path fill-rule="evenodd" d="M33.5,458.9h362v-8.2H33.5v8.2Z" class="g3_1" />
<path fill-rule="evenodd" d="M33.5,483.7h362v-8.3H33.5v8.3Z" class="g2_1" />
<path fill-rule="evenodd" d="M33.5,491.9h362v-8.2H33.5v8.2Z" class="g6_1" />
<path fill-rule="evenodd" d="M33.5,500.2h78v-8.3h-78v8.3Z" class="g0_1" />
<path fill-rule="evenodd" d="M33.5,508.4H195.9v-8.2H33.5v8.2Z" class="g4_1" />
<path fill-rule="evenodd" d="M33.5,516.7H153.4v-8.3H33.5v8.3Z" class="g5_1" />
<path fill-rule="evenodd" d="M228.4,516.7h72v-8.3h-72v8.3Z" class="g5_1" />
<path fill-rule="evenodd" d="M300.2,516.7h95.3v-8.3H300.2v8.3Z" class="g3_1" />
<path fill-rule="evenodd" d="M33.5,536.1h362V516.7H33.5v19.4Z" class="g5_1" />
<path fill-rule="evenodd" d="M33.5,560.8h362V536.1H33.5v24.7Z" class="g3_1" />
<path fill-rule="evenodd" d="M33.5,569.1H195.9v-8.3H33.5v8.3Z" class="g4_1" />
<path fill-rule="evenodd" d="M33.5,577.3h362v-8.2H33.5v8.2Z" class="g6_1" />
<path fill-rule="evenodd" d="M33.5,585.6H153.4v-8.3H33.5v8.3Z" class="g5_1" />
<path fill-rule="evenodd" d="M153.4,585.6h75v-8.3h-75v8.3Z" class="g3_1" />
<path fill-rule="evenodd" d="M228.4,585.6h72v-8.3h-72v8.3Z" class="g5_1" />
<path fill-rule="evenodd" d="M300.2,585.6h95.3v-8.3H300.2v8.3Z" class="g3_1" />
<path fill-rule="evenodd" d="M33.5,597.9h362V585.6H33.5v12.3Z" class="g5_1" />
<path fill-rule="evenodd" d="M33.5,614.4h362V597.9H33.5v16.5Z" class="g3_1" />
<path fill-rule="evenodd" d="M33.5,622.7h362v-8.3H33.5v8.3Z" class="g6_1" />
<path fill-rule="evenodd" d="M33.5,640.4h362V622.7H33.5v17.7Z" class="g0_1" />
<path fill-rule="evenodd" d="M33.5,648.7h362v-8.3H33.5v8.3Z" class="g3_1" />
<path fill-rule="evenodd" d="M33.5,663H153.4V648.5H33.5V663Z" class="g4_1" />
<path fill-rule="evenodd" d="M153.4,663h75V648.5h-75V663Z" class="g3_1" />
<path fill-rule="evenodd" d="M228.4,663h137V648.5h-137V663Z" class="g4_1" />
<path fill-rule="evenodd" d="M365.4,663h30.1V648.5H365.4V663Z" class="g3_1" />
<path fill-rule="evenodd" d="M33.5,671.3h362V663H33.5v8.3Z" class="g0_1" />
<path fill-rule="evenodd" d="M33.5,679.5H153.4v-8.2H33.5v8.2Z" class="g4_1" />
<path fill-rule="evenodd" d="M153.4,679.5h75v-8.2h-75v8.2Z" class="g5_1" />
<path fill-rule="evenodd" d="M228.4,679.5H332.9v-8.2H228.4v8.2Z" class="g4_1" />
<path fill-rule="evenodd" d="M332.9,679.5h62.8v-8.2H332.9v8.2Z" class="g5_1" />
<path fill-rule="evenodd" d="M33.5,696h362V679.5H33.5V696Z" class="g3_1" />
<path fill-rule="evenodd" d="M33.5,704.3h362V696H33.5v8.3Z" class="g6_1" />
<path fill-rule="evenodd" d="M33.5,712.5H50.4v-8.2H33.5v8.2Z" class="g1_1" />
<path fill-rule="evenodd" d="M50.4,712.5h61.1v-8.2H50.4v8.2Z" class="g0_1" />
<path fill-rule="evenodd" d="M111.5,712.5h284v-8.2h-284v8.2Z" class="g1_1" />
<path fill-rule="evenodd" d="M33.5,720.8h362v-8.3H33.5v8.3Z" class="g4_1" />
<path fill-rule="evenodd" d="M33.5,770.3h78V720.8h-78v49.5Z" class="g5_1" />
<path fill-rule="evenodd" d="M111.5,770.3h41.9V720.8H111.5v49.5Z" class="g3_1" />
<path fill-rule="evenodd" d="M228.4,770.3h72V720.8h-72v49.5Z" class="g5_1" />
<path fill-rule="evenodd" d="M300.2,770.3h32.6V720.8H300.2v49.5Z" class="g3_1" />
<path fill-rule="evenodd" d="M33.5,795h362v-8.2H33.5V795Z" class="g2_1" />
<path fill-rule="evenodd" d="M33.5,803.3H228.4V795H33.5v8.3Z" class="g1_1" />
<path fill-rule="evenodd" d="M228.4,803.3H395.5V795H228.4v8.3Z" class="g0_1" />
<path fill-rule="evenodd" d="M33.5,819.8h362v-8.3H33.5v8.3Z" class="g0_1" />
<path fill-rule="evenodd" d="M33.5,836.3h362V828H33.5v8.3Z" class="g0_1" />
<path fill-rule="evenodd" d="M33.5,852.8H50.4v-8.3H33.5v8.3Z" class="g1_1" />
<path fill-rule="evenodd" d="M50.4,852.8H395.5v-8.3H50.4v8.3Z" class="g0_1" />
<path fill-rule="evenodd" d="M33.5,880h362V861H33.5v19Z" class="g0_1" />
<path fill-rule="evenodd" d="M33.5,888.2h362V880H33.5v8.2Z" class="g3_1" />
<path fill-rule="evenodd" d="M33.5,896.5H300.4v-8.3H33.5v8.3Z" class="g0_1" />
<path fill-rule="evenodd" d="M33.5,904.7H300.4v-8.2H33.5v8.2Z" class="g4_1" />
<path fill-rule="evenodd" d="M33.5,921.2h362V913H33.5v8.2Z" class="g2_1" />
<path fill-rule="evenodd" d="M33.5,937.7h362V921.2H33.5v16.5Z" class="g4_1" />
<path fill-rule="evenodd" d="M33.5,946H300.4v-8.3H33.5V946Z" class="g0_1" />
<path fill-rule="evenodd" d="M33.5,954.2h362V946H33.5v8.2Z" class="g4_1" />
<path fill-rule="evenodd" d="M33.5,962.5H300.4v-8.3H33.5v8.3Z" class="g3_1" />
<path fill-rule="evenodd" d="M33.5,970.7H300.4v-8.2H33.5v8.2Z" class="g0_1" />
<path fill-rule="evenodd" d="M33.5,979H228.4v-8.3H33.5V979Z" class="g4_1" />
<path fill-rule="evenodd" d="M228.4,979h72v-8.3h-72V979Z" class="g5_1" />
<path fill-rule="evenodd" d="M33.5,987.2h362V979H33.5v8.2Z" class="g5_1" />
<path fill-rule="evenodd" d="M33.5,995.5h362v-8.3H33.5v8.3Z" class="g3_1" />
<path fill-rule="evenodd" d="M33.5,1003.7h362v-8.2H33.5v8.2Z" class="g5_1" />
<path fill-rule="evenodd" d="M33.5,1012h362v-8.3H33.5v8.3Z" class="g3_1" />
<path fill-rule="evenodd" d="M33.5,1020.2h362V1012H33.5v8.2Z" class="g5_1" />
<path fill-rule="evenodd" d="M33.5,1028.5h362v-8.3H33.5v8.3Z" class="g3_1" />
<path fill-rule="evenodd" d="M33.5,1045h78v-16.5h-78V1045Z" class="g4_1" />
<path fill-rule="evenodd" d="M33.5,1053.2H300.4V1045H33.5v8.2Z" class="g0_1" />
<path fill-rule="evenodd" d="M33.5,1069.7h78v-16.5h-78v16.5Z" class="g4_1" />
<path fill-rule="evenodd" d="M33.5,1078H228.4v-8.3H33.5v8.3Z" class="g0_1" />
<path fill-rule="evenodd" d="M228.4,1078h72v-8.3h-72v8.3Z" class="g5_1" />
<path fill-rule="evenodd" d="M33.5,1086.2h362V1078H33.5v8.2Z" class="g5_1" />
<path fill-rule="evenodd" d="M33.5,1094.5h362v-8.3H33.5v8.3Z" class="g3_1" />
<path fill-rule="evenodd" d="M33.5,1102.7h362v-8.2H33.5v8.2Z" class="g5_1" />
<path fill-rule="evenodd" d="M33.5,1111H332.9v-8.3H33.5v8.3Z" class="g3_1" />
<path fill-rule="evenodd" d="M33.5,1119.2h362V1111H33.5v8.2Z" class="g5_1" />
<path fill-rule="evenodd" d="M33.5,1127.5h362v-8.3H33.5v8.3Z" class="g3_1" />
<path fill-rule="evenodd" d="M33.5,1145.2h362v-17.7H33.5v17.7Z" class="g0_1" />
<path fill-rule="evenodd" d="M33.5,1153.4h362v-8.2H33.5v8.2Z" class="g3_1" />
<path fill-rule="evenodd" d="M33.5,1169.9h362v-8.2H33.5v8.2Z" class="g2_1" />
<path fill-rule="evenodd" d="M33.5,1178.2h362v-8.3H33.5v8.3Z" class="g0_1" />
<path fill-rule="evenodd" d="M33.5,1202.9h362v-8.2H33.5v8.2Z" class="g0_1" />
<path fill-rule="evenodd" d="M33.5,1235.8h362v-8.3H33.5v8.3Z" class="g2_1" />
<path fill-rule="evenodd" d="M395.7,90.9l-.2,.1H333.2l-.1,-.1l-.3,-.3h63l-.1,.3Z" class="g2_1" />
<path fill-rule="evenodd" d="M395.7,99.1l-.2,.2H333.2l-.1,-.2l.1,-.3h62.3l.2,.3Z" class="g2_1" />
<path fill-rule="evenodd" d="M395.7,107.4l.1,.1h-63l.3,-.1l.1,-.3h62.3l.2,.3Z" class="g2_1" />
<path fill-rule="evenodd" d="M395.7,165.1l-.2,.2H33.8l-.2,-.2l-.3,-.3H395.8l-.1,.3Z" class="g2_1" />
<path fill-rule="evenodd" d="M395.7,173.4l.1,.1H33.3l.3,-.1l.2,-.3H395.5l.2,.3Z" class="g2_1" />
<path fill-rule="evenodd" d="M395.7,181.6l-.2,.2H33.8l-.2,-.2l-.3,-.3H395.8l-.1,.3Z" class="g2_1" />
<path fill-rule="evenodd" d="M395.7,189.9l-.2,.1H33.8l-.2,-.1l.2,-.3H395.5l.2,.3Z" class="g2_1" />
<path fill-rule="evenodd" d="M395.7,198.1l-.2,.2H33.8l-.2,-.2l.2,-.3H395.5l.2,.3Z" class="g2_1" />
<path fill-rule="evenodd" d="M395.7,206.4l-.2,.1H33.8l-.2,-.1l.2,-.3H395.5l.2,.3Z" class="g2_1" />
<path fill-rule="evenodd" d="M395.7,214.6l.1,.2H33.3l.3,-.2l.2,-.3H395.5l.2,.3Z" class="g2_1" />
<path fill-rule="evenodd" d="M395.7,222.9l-.2,.1H33.8l-.2,-.1l-.3,-.3H395.8l-.1,.3Z" class="g2_1" />
<path fill-rule="evenodd" d="M395.7,231.1l-.2,.2H33.8l-.2,-.2l.2,-.3H395.5l.2,.3Z" class="g2_1" />
<path fill-rule="evenodd" d="M395.7,239.4l-.2,.1H33.8l-.2,-.1l.2,-.3H395.5l.2,.3Z" class="g2_1" />
<path fill-rule="evenodd" d="M395.7,247.5l-.2,.3H33.8l-.2,-.3l.2,-.2H395.5l.2,.2Z" class="g2_1" />
<path fill-rule="evenodd" d="M395.7,255.7l-.2,.3H33.8l-.2,-.3l.2,-.1H395.5l.2,.1Z" class="g2_1" />
<path fill-rule="evenodd" d="M395.7,264l-.2,.3H33.8l-.2,-.3l.2,-.2H395.5l.2,.2Z" class="g2_1" />
<path fill-rule="evenodd" d="M395.7,272.2l-.2,.3H33.8l-.2,-.3l.2,-.1H395.5l.2,.1Z" class="g2_1" />
<path fill-rule="evenodd" d="M395.7,280.5l-.2,.3H33.8l-.2,-.3l.2,-.2H395.5l.2,.2Z" class="g2_1" />
<path fill-rule="evenodd" d="M395.7,288.7l-.2,.3H33.8l-.2,-.3l.2,-.1H395.5l.2,.1Z" class="g2_1" />
<path fill-rule="evenodd" d="M395.7,297l-.2,.3H33.8l-.2,-.3l.2,-.2H395.5l.2,.2Z" class="g2_1" />
<path fill-rule="evenodd" d="M395.7,305.2l-.2,.3H33.8l-.2,-.3l.2,-.1H395.5l.2,.1Z" class="g2_1" />
<path fill-rule="evenodd" d="M395.7,313.5v.3H33.8l-.2,-.3l.2,-.2H395.5l.2,.2Z" class="g2_1" />
<path fill-rule="evenodd" d="M395.7,321.7l-.2,.3H33.8l-.2,-.3l.2,-.1H395.7v.1Z" class="g2_1" />
<path fill-rule="evenodd" d="M395.7,330l-.2,.3H153.7l-.2,-.3l.2,-.2H395.5l.2,.2Z" class="g2_1" />
<path fill-rule="evenodd" d="M395.7,338.2l-.2,.3H153.7l-.2,-.3l.2,-.1H395.5l.2,.1Z" class="g2_1" />
<path fill-rule="evenodd" d="M395.7,346.5l-.2,.3H33.8l-.2,-.3l.2,-.2H395.5l.2,.2Z" class="g2_1" />
<path fill-rule="evenodd" d="M195.9,354.7l.3,.3H33.8l-.2,-.3l.2,-.1H195.7l.2,.1Z" class="g2_1" />
<path d="M195.9,354.7H395.7" class="g7_1" />
<path fill-rule="evenodd" d="M395.7,363l-.2,.3H33.8l-.2,-.3l.2,-.2H395.5l.2,.2Z" class="g2_1" />
<path fill-rule="evenodd" d="M395.7,371.2l-.2,.3H33.8l-.2,-.3l.2,-.1H395.5l.2,.1Z" class="g2_1" />
<path fill-rule="evenodd" d="M395.7,384.8l-.2,.3H33.8l-.2,-.3l.2,-.1H395.5l.2,.1Z" class="g2_1" />
<path fill-rule="evenodd" d="M395.7,393.1l-.2,.3H33.8l-.2,-.3l.2,-.2H395.5l.2,.2Z" class="g2_1" />
<path fill-rule="evenodd" d="M395.7,401.3l-.2,.3H33.8l-.2,-.3l.2,-.1H395.5l.2,.1Z" class="g2_1" />
<path fill-rule="evenodd" d="M395.7,409.6l-.2,.3H33.8l-.2,-.3l.2,-.2H395.5l.2,.2Z" class="g2_1" />
<path fill-rule="evenodd" d="M395.7,417.8l-.2,.3H33.8l-.2,-.3l.2,-.1H395.5l.2,.1Z" class="g2_1" />
<path d="M33.6,426.1H395.7" class="g7_1" />
<path fill-rule="evenodd" d="M395.7,434.3l-.2,.3H33.8l-.2,-.3l.2,-.1H395.5l.2,.1Z" class="g2_1" />
<path fill-rule="evenodd" d="M395.7,442.6l-.2,.3H33.8l-.2,-.3l.2,-.2H395.5l.2,.2Z" class="g2_1" />
<path fill-rule="evenodd" d="M395.7,450.8l-.2,.3H33.8l-.2,-.3l.2,-.1H395.5l.2,.1Z" class="g2_1" />
<path d="M33.6,459.1H395.7" class="g7_1" />
<path fill-rule="evenodd" d="M395.7,467.3l.1,.3H33.3l.3,-.3l.2,-.1H395.5l.2,.1Z" class="g2_1" />
<path fill-rule="evenodd" d="M395.7,475.6l-.2,.3H33.8l-.2,-.3l-.3,-.2H395.8l-.1,.2Z" class="g2_1" />
<path fill-rule="evenodd" d="M395.7,483.8l-.2,.3H33.8l-.2,-.3l.2,-.1H395.5l.2,.1Z" class="g2_1" />
<path fill-rule="evenodd" d="M395.7,492.1l-.2,.3H33.8l-.2,-.3l.2,-.2H395.5l.2,.2Z" class="g2_1" />
<path fill-rule="evenodd" d="M395.7,500.3l-.2,.3H33.8l-.2,-.3l.2,-.1H395.5l.2,.1Z" class="g2_1" />
<path fill-rule="evenodd" d="M395.7,508.6l-.2,.1H33.8l-.2,-.1l.2,-.2H395.5l.2,.2Z" class="g2_1" />
<path fill-rule="evenodd" d="M395.7,516.8l-.2,.2H33.8l-.2,-.2l.2,-.1H395.5l.2,.1Z" class="g2_1" />
<path fill-rule="evenodd" d="M395.7,536.2l-.2,.2H33.8l-.2,-.2l.2,-.3H395.5l.2,.3Z" class="g2_1" />
<path fill-rule="evenodd" d="M395.7,544.5l-.2,.1H33.8l-.2,-.1l.2,-.3H395.5l.2,.3Z" class="g2_1" />
<path fill-rule="evenodd" d="M395.7,552.7l-.2,.2H33.8l-.2,-.2l.2,-.3H395.5l.2,.3Z" class="g2_1" />
<path fill-rule="evenodd" d="M395.7,561l-.2,.1H33.8l-.2,-.1l.2,-.3H395.5l.2,.3Z" class="g2_1" />
<path fill-rule="evenodd" d="M395.7,569.2l-.2,.2H33.8l-.2,-.2l.2,-.3H395.5l.2,.3Z" class="g2_1" />
<path fill-rule="evenodd" d="M395.7,577.5l-.2,.1H33.8l-.2,-.1l.2,-.3H395.5l.2,.3Z" class="g2_1" />
<path fill-rule="evenodd" d="M395.7,585.7l-.2,.2H33.8l-.2,-.2l.2,-.3H395.5l.2,.3Z" class="g2_1" />
<path fill-rule="evenodd" d="M395.7,598.1l-.2,.1H33.8l-.2,-.1l.2,-.3H395.5l.2,.3Z" class="g2_1" />
<path fill-rule="evenodd" d="M395.7,606.3l-.2,.2H33.8l-.2,-.2l.2,-.3H395.5l.2,.3Z" class="g2_1" />
<path fill-rule="evenodd" d="M395.7,614.6l-.2,.1H33.8l-.2,-.1l.2,-.3H395.5l.2,.3Z" class="g2_1" />
<path fill-rule="evenodd" d="M395.7,622.8l-.2,.2H33.8l-.2,-.2l.2,-.3H395.5l.2,.3Z" class="g2_1" />
<path fill-rule="evenodd" d="M395.7,640.6l-.2,.1H33.8l-.2,-.1l.2,-.4H395.5l.2,.4Z" class="g2_1" />
<path fill-rule="evenodd" d="M395.7,648.8l-.2,.2H33.8l-.2,-.2l.2,-.3H395.5l.2,.3Z" class="g2_1" />
<path fill-rule="evenodd" d="M395.7,663.2l-.2,.3H33.8l-.2,-.3l.2,-.2H395.5l.2,.2Z" class="g2_1" />
<path fill-rule="evenodd" d="M395.7,671.4l-.2,.3H33.8l-.2,-.3l.2,-.1H395.5l.2,.1Z" class="g2_1" />
<path fill-rule="evenodd" d="M395.7,679.7l-.2,.3H33.8l-.2,-.3l.2,-.2H395.5l.2,.2Z" class="g2_1" />
<path d="M33.6,687.9H395.7" class="g7_1" />
<path fill-rule="evenodd" d="M395.7,696.2l-.2,.3H33.8l-.2,-.3l.2,-.2H395.5l.2,.2Z" class="g2_1" />
<path fill-rule="evenodd" d="M395.7,704.4l-.2,.3H33.8l-.2,-.3l.2,-.1H395.5l.2,.1Z" class="g2_1" />
<path fill-rule="evenodd" d="M395.7,712.7l-.2,.1H33.8l-.2,-.1l.2,-.2H395.5l.2,.2Z" class="g2_1" />
<path fill-rule="evenodd" d="M395.7,720.9l-.2,.2H33.8l-.2,-.2l.2,-.1H395.5l.2,.1Z" class="g2_1" />
<path d="M33.6,729.2H395.7M33.6,737.4H395.7M33.6,745.7H395.7M33.6,753.9H395.7M33.6,762.2H395.7" class="g7_1" />
<path fill-rule="evenodd" d="M395.7,770.4l.1,.2H33.3l.3,-.2l.2,-.1H395.5l.2,.1Z" class="g2_1" />
<path fill-rule="evenodd" d="M395.7,786.9l-.2,.2H33.8l-.2,-.2l-.3,-.3H395.8l-.1,.3Z" class="g2_1" />
<path fill-rule="evenodd" d="M395.7,795.2l-.2,.1H33.8l-.2,-.1l.2,-.3H395.5l.2,.3Z" class="g2_1" />
<path fill-rule="evenodd" d="M395.7,803.4l-.2,.2H33.8l-.2,-.2l.2,-.3H395.5l.2,.3Z" class="g2_1" />
<path fill-rule="evenodd" d="M395.7,811.7l-.2,.1H33.8l-.2,-.1l.2,-.3H395.5l.2,.3Z" class="g2_1" />
<path fill-rule="evenodd" d="M395.7,819.9l-.2,.2H33.8l-.2,-.2l.2,-.3H395.5l.2,.3Z" class="g2_1" />
<path fill-rule="evenodd" d="M395.7,828.2l-.2,.1H33.8l-.2,-.1l.2,-.3H395.5l.2,.3Z" class="g2_1" />
<path fill-rule="evenodd" d="M395.7,836.4l-.2,.2H33.8l-.2,-.2l.2,-.3H395.5l.2,.3Z" class="g2_1" />
<path fill-rule="evenodd" d="M395.7,844.7l-.2,.1H33.8l-.2,-.1l.2,-.3H395.5l.2,.3Z" class="g2_1" />
<path fill-rule="evenodd" d="M395.7,852.9l-.2,.2H33.8l-.2,-.2l.2,-.3H395.5l.2,.3Z" class="g2_1" />
<path fill-rule="evenodd" d="M395.7,861.2l-.2,.1H33.8l-.2,-.1l.2,-.3H395.5l.2,.3Z" class="g2_1" />
<path fill-rule="evenodd" d="M395.7,880.1l-.2,.2H33.8l-.2,-.2l.2,-.1H395.5l.2,.1Z" class="g2_1" />
<path fill-rule="evenodd" d="M395.7,888.4l-.2,.1H33.8l-.2,-.1l.2,-.2H395.5l.2,.2Z" class="g2_1" />
<path fill-rule="evenodd" d="M395.7,896.6l-.2,.2H33.8l-.2,-.2l.2,-.3H395.5l.2,.3Z" class="g2_1" />
<path fill-rule="evenodd" d="M395.7,904.9l.1,.1H33.3l.3,-.1l.2,-.3H395.5l.2,.3Z" class="g2_1" />
<path fill-rule="evenodd" d="M395.7,913.1l-.2,.2H33.8l-.2,-.2l-.3,-.3H395.8l-.1,.3Z" class="g2_1" />
<path fill-rule="evenodd" d="M395.7,921.4l-.2,.1H33.8l-.2,-.1l.2,-.3H395.5l.2,.3Z" class="g8_1" />
<path fill-rule="evenodd" d="M395.7,937.9l-.2,.1H33.8l-.2,-.1l.2,-.3H395.5l.2,.3Z" class="g2_1" />
<path fill-rule="evenodd" d="M395.7,946.1l-.2,.2H33.8l-.2,-.2l.2,-.3H395.5l.2,.3Z" class="g2_1" />
<path fill-rule="evenodd" d="M395.7,954.4l-.2,.1H33.8l-.2,-.1l.2,-.3H395.5l.2,.3Z" class="g2_1" />
<path fill-rule="evenodd" d="M395.7,962.6l-.2,.2H33.8l-.2,-.2l.2,-.3H395.5l.2,.3Z" class="g2_1" />
<path fill-rule="evenodd" d="M395.7,970.9l-.2,.1H33.8l-.2,-.1l.2,-.3H395.5l.2,.3Z" class="g2_1" />
<path fill-rule="evenodd" d="M395.7,979.1l-.2,.2H33.8l-.2,-.2l.2,-.3H395.5l.2,.3Z" class="g2_1" />
<path fill-rule="evenodd" d="M395.7,987.4l-.2,.1H33.8l-.2,-.1l.2,-.3H395.5l.2,.3Z" class="g2_1" />
<path fill-rule="evenodd" d="M395.7,995.6l-.2,.2H33.8l-.2,-.2l.2,-.3H395.5l.2,.3Z" class="g2_1" />
<path fill-rule="evenodd" d="M395.7,1003.9l-.2,.1H33.8l-.2,-.1l.2,-.3H395.5l.2,.3Z" class="g2_1" />
<path fill-rule="evenodd" d="M395.7,1012.1l-.2,.2H33.8l-.2,-.2l.2,-.3H395.5l.2,.3Z" class="g2_1" />
<path fill-rule="evenodd" d="M395.7,1020.4l-.2,.1H33.8l-.2,-.1l.2,-.3H395.5l.2,.3Z" class="g2_1" />
<path fill-rule="evenodd" d="M395.7,1028.6l-.2,.2H33.8l-.2,-.2l.2,-.3H395.5l.2,.3Z" class="g2_1" />
<path fill-rule="evenodd" d="M395.7,1045.1l-.2,.2H33.8l-.2,-.2l.2,-.3H395.5l.2,.3Z" class="g2_1" />
<path fill-rule="evenodd" d="M395.7,1053.4l-.2,.1H33.8l-.2,-.1l.2,-.3H395.5l.2,.3Z" class="g2_1" />
<path fill-rule="evenodd" d="M395.7,1069.9l-.2,.1H33.8l-.2,-.1l.2,-.3H395.5l.2,.3Z" class="g2_1" />
<path fill-rule="evenodd" d="M395.7,1078.1l-.2,.2H33.8l-.2,-.2l.2,-.3H395.5l.2,.3Z" class="g2_1" />
<path fill-rule="evenodd" d="M395.7,1086.4l-.2,.1H33.8l-.2,-.1l.2,-.3H395.5l.2,.3Z" class="g2_1" />
<path fill-rule="evenodd" d="M395.7,1094.6l-.2,.2H33.8l-.2,-.2l.2,-.3H395.5l.2,.3Z" class="g2_1" />
<path fill-rule="evenodd" d="M395.7,1102.7l-.2,.3H33.8l-.2,-.3l.2,-.1H395.5l.2,.1Z" class="g2_1" />
<path fill-rule="evenodd" d="M395.7,1111l-.2,.3H33.8l-.2,-.3l.2,-.2H395.5l.2,.2Z" class="g2_1" />
<path fill-rule="evenodd" d="M395.7,1119.2l-.2,.3H33.8l-.2,-.3l.2,-.1H395.5l.2,.1Z" class="g2_1" />
<path fill-rule="evenodd" d="M395.7,1127.5l-.2,.3H33.8l-.2,-.3l.2,-.2H395.5l.2,.2Z" class="g2_1" />
<path fill-rule="evenodd" d="M395.7,1145.2l-.2,.3H33.8l-.2,-.3l.2,-.2H395.5l.2,.2Z" class="g2_1" />
<path fill-rule="evenodd" d="M395.7,1153.4l.1,.3H33.3l.3,-.3l.2,-.1H395.5l.2,.1Z" class="g2_1" />
<path fill-rule="evenodd" d="M395.7,1161.7l-.2,.3H33.8l-.2,-.3l-.3,-.2H395.8l-.1,.2Z" class="g2_1" />
<path fill-rule="evenodd" d="M395.7,1169.9l-.2,.3H33.8l-.2,-.3l.2,-.1H395.5l.2,.1Z" class="g2_1" />
<path fill-rule="evenodd" d="M395.7,1178.2l-.2,.3H33.8l-.2,-.3l.2,-.2H395.5l.2,.2Z" class="g2_1" />
<path d="M33.6,1186.4H395.7" class="g7_1" />
<path fill-rule="evenodd" d="M395.7,1194.7l-.2,.3H33.8l-.2,-.3l.2,-.2H395.5l.2,.2Z" class="g2_1" />
<path fill-rule="evenodd" d="M395.7,1202.9l-.2,.3H33.8l-.2,-.3l.2,-.1H395.5l.2,.1Z" class="g2_1" />
<path d="M33.6,1211.2H395.7" class="g7_1" />
<path fill-rule="evenodd" d="M395.7,1219.4l.1,.3H33.3l.3,-.3l.2,-.1H395.5l.2,.1Z" class="g2_1" />
<path fill-rule="evenodd" d="M395.7,1227.7l-.2,.3H33.8l-.2,-.3l-.3,-.2H395.8l-.1,.2Z" class="g2_1" />
<path fill-rule="evenodd" d="M395.7,1235.9l-.2,.3H33.8l-.2,-.3l.2,-.1H395.5l.2,.1Z" class="g2_1" />
<path fill-rule="evenodd" d="M395.7,1304.1l.1,.1H33.3l.3,-.1l.2,-.3H395.5l.2,.3Z" class="g2_1" />
<path fill-rule="evenodd" d="M153.5,1345H300.4v.5H153.5v-.5Z" class="g2_1" />
<path fill-rule="evenodd" d="M50.6,1386.3H195.9v.4H50.6v-.4Z" class="g2_1" />
<path fill-rule="evenodd" d="M261.1,1386.3H395.7v.4H261.1v-.4Z" class="g2_1" />
<path fill-rule="evenodd" d="M33.6,165.1l.2,.2v7.8l-.2,.3l-.3,.1v-8.7l.3,.3Z" class="g2_1" />
<path fill-rule="evenodd" d="M33.6,181.6l.2,.2v32.5l-.2,.3l-.3,.2V181.3l.3,.3Z" class="g2_1" />
<path fill-rule="evenodd" d="M33.6,222.9l.2,.1V467.2l-.2,.1l-.3,.3v-245l.3,.3Z" class="g2_1" />
<path fill-rule="evenodd" d="M33.6,475.6l.2,.3V770.3l-.2,.1l-.3,.2V475.4l.3,.2Z" class="g2_1" />
<path fill-rule="evenodd" d="M33.6,786.9l.2,.2V904.6l-.2,.3l-.3,.1V786.6l.3,.3Z" class="g2_1" />
<path fill-rule="evenodd" d="M33.6,913.1l.2,.2v240l-.2,.1l-.3,.3V912.8l.3,.3Z" class="g2_1" />
<path fill-rule="evenodd" d="M33.6,1161.7l.2,.3v57.3l-.2,.1l-.3,.3v-58.2l.3,.2Z" class="g2_1" />
<path fill-rule="evenodd" d="M33.6,1227.7l.2,.3v75.8l-.2,.3l-.3,.1v-76.7l.3,.2Z" class="g2_1" />
<path fill-rule="evenodd" d="M50.6,181.6l.1,.2v7.8l-.1,.3l-.2,-.3v-7.8l.2,-.2Z" class="g2_1" />
<path fill-rule="evenodd" d="M50.6,544.5l.1,.1v7.8l-.1,.3l-.2,-.3v-7.8l.2,-.1Z" class="g2_1" />
<path fill-rule="evenodd" d="M50.6,598.1l.1,.1V606l-.1,.3l-.2,-.3v-7.8l.2,-.1Z" class="g2_1" />
<path fill-rule="evenodd" d="M50.6,1012.1l.1,.2v7.8l-.1,.3l-.2,-.3v-7.8l.2,-.2Z" class="g8_1" />
<path fill-rule="evenodd" d="M50.6,1111l.1,.3v7.8l-.1,.1l-.2,-.1v-7.8l.2,-.3Z" class="g8_1" />
<path fill-rule="evenodd" d="M111.7,165.1l.1,.2v7.8l-.1,.3l-.2,-.3v-7.8l.2,-.2Z" class="g2_1" />
<path fill-rule="evenodd" d="M111.7,231.1l.1,.2v7.8l-.1,.3l-.2,-.3v-7.8l.2,-.2Z" class="g2_1" />
<path fill-rule="evenodd" d="M111.7,288.7l.1,.3v57.3l-.1,.2l-.2,-.2V289l.2,-.3Z" class="g2_1" />
<path d="M111.7,434.3v-8.2" class="g7_1" />
<path fill-rule="evenodd" d="M111.7,492.1l.1,.3v7.8l-.1,.1l-.2,-.1v-7.8l.2,-.3Z" class="g2_1" />
<path fill-rule="evenodd" d="M111.7,544.5l.1,.1v16.1l-.1,.3l-.2,-.3V544.6l.2,-.1Z" class="g2_1" />
<path fill-rule="evenodd" d="M111.7,598.1l.1,.1v16.1l-.1,.3l-.2,-.3V598.2l.2,-.1Z" class="g2_1" />
<path fill-rule="evenodd" d="M111.7,712.7l.1,.1v57.5l-.1,.1l-.2,-.1V712.8l.2,-.1Z" class="g2_1" />
<path fill-rule="evenodd" d="M111.7,888.4l.1,.1v7.8l-.1,.3l-.2,-.3v-7.8l.2,-.1Z" class="g8_1" />
<path fill-rule="evenodd" d="M111.7,1028.6l.1,.2v16l-.1,.3l-.2,-.3v-16l.2,-.2Z" class="g2_1" />
<path fill-rule="evenodd" d="M111.7,1053.4l.1,.1v16.1l-.1,.3l-.2,-.3v-16.1l.2,-.1Z" class="g2_1" />
<path fill-rule="evenodd" d="M153.5,247.5l.2,.3v32.5l-.2,.2l-.1,-.2V247.8l.1,-.3Z" class="g2_1" />
<path fill-rule="evenodd" d="M153.5,297l.2,.3v7.8l-.2,.1l-.1,-.1v-7.8l.1,-.3Z" class="g2_1" />
<path fill-rule="evenodd" d="M153.5,321.7l.2,.3v24.3l-.2,.2l-.1,-.2V322l.1,-.3Z" class="g2_1" />
<path fill-rule="evenodd" d="M153.5,393.1l.2,.3v16l-.2,.2l-.1,-.2v-16l.1,-.3Z" class="g2_1" />
<path fill-rule="evenodd" d="M153.5,508.6l.2,.1v8l-.2,.1l-.1,-.1v-8l.1,-.1Z" class="g2_1" />
<path fill-rule="evenodd" d="M153.5,577.5l.2,.1v7.8l-.2,.3l-.1,-.3v-7.8l.1,-.1Z" class="g2_1" />
<path fill-rule="evenodd" d="M153.5,648.8l.2,.2v14l-.2,.2l-.1,-.2V649l.1,-.2Z" class="g2_1" />
<path fill-rule="evenodd" d="M153.5,696.2l-.1,-.2v-1.1h.3V696l-.2,.2Z" class="g2_1" />
<path fill-rule="evenodd" d="M153.7,694.3h-.3v-1.5h.3v1.5Z" class="g2_1" />
<path fill-rule="evenodd" d="M153.7,692.2h-.3v-1.7h.3v1.7Z" class="g2_1" />
<path fill-rule="evenodd" d="M153.7,690.1h-.3v-1.7h.3v1.7Z" class="g2_1" />
<path fill-rule="evenodd" d="M153.7,687.8h-.3v-1.7h.3v1.7Z" class="g2_1" />
<path fill-rule="evenodd" d="M153.7,685.6h-.3v-1.7h.3v1.7Z" class="g2_1" />
<path fill-rule="evenodd" d="M153.7,683.3h-.3v-1.5h.3v1.5Z" class="g2_1" />
<path fill-rule="evenodd" d="M153.7,681.2h-.3v-1.7h.3v1.7Z" class="g2_1" />
<path fill-rule="evenodd" d="M153.7,679.1h-.3v-1.7h.3v1.7Z" class="g2_1" />
<path fill-rule="evenodd" d="M153.7,676.8h-.3v-1.7h.3v1.7Z" class="g2_1" />
<path fill-rule="evenodd" d="M153.7,674.6h-.3v-1.7h.3v1.7Z" class="g2_1" />
<path fill-rule="evenodd" d="M153.5,671.4l.2,.3v.6h-.3v-.6l.1,-.3Z" class="g2_1" />
<path fill-rule="evenodd" d="M153.5,712.7l.2,.1v57.5l-.2,.1l-.1,-.1V712.8l.1,-.1Z" class="g2_1" />
<path fill-rule="evenodd" d="M153.5,888.4l.2,.1v7.8l-.2,.3l-.1,-.3v-7.8l.1,-.1Z" class="g8_1" />
<path fill-rule="evenodd" d="M153.5,979.1l.2,.2v32.5l-.2,.3l-.1,-.3V979.3l.1,-.2Z" class="g2_1" />
<path fill-rule="evenodd" d="M153.5,1078.1l.2,.2v32.5l-.2,.2l-.1,-.2v-32.5l.1,-.2Z" class="g2_1" />
<path fill-rule="evenodd" d="M195.9,189.9l.3,.1v7.8l-.3,.3l-.2,-.3V190l.2,-.1Z" class="g2_1" />
<path fill-rule="evenodd" d="M195.9,288.7l.3,.3v65.7h-.3l-.2,-.1V289l.2,-.3Z" class="g2_1" />
<path fill-rule="evenodd" d="M195.9,371.2l.3,.3v21.4l-.3,.2l-.2,-.2V371.5l.2,-.3Z" class="g2_1" />
<path fill-rule="evenodd" d="M195.9,500.3l.3,.3v7.8l-.3,.2l-.2,-.2v-7.8l.2,-.3Z" class="g2_1" />
<path fill-rule="evenodd" d="M195.9,561l.3,.1v7.8l-.3,.3l-.2,-.3v-7.8l.2,-.1Z" class="g2_1" />
<path d="M195.9,770.4V712.7" class="g7_1" />
<path fill-rule="evenodd" d="M195.9,888.4l.3,.1v7.8l-.3,.3l-.2,-.3v-7.8l.2,-.1Z" class="g8_1" />
<path fill-rule="evenodd" d="M195.9,946.1l.3,.2v16l-.3,.3l-.2,-.3v-16l.2,-.2Z" class="g2_1" />
<path fill-rule="evenodd" d="M195.9,1012.1l.3,.2v16l-.3,.3l-.2,-.3v-16l.2,-.2Z" class="g2_1" />
<path fill-rule="evenodd" d="M195.9,1111l.3,.3v16l-.3,.2l-.2,-.2v-16l.2,-.3Z" class="g2_1" />
<path fill-rule="evenodd" d="M228.6,165.1l.1,.2v7.8l-.1,.3l-.4,-.3v-7.8l.4,-.2Z" class="g2_1" />
<path fill-rule="evenodd" d="M228.6,321.7l.1,.3v24.3l-.1,.2l-.4,-.2V322l.4,-.3Z" class="g2_1" />
<path fill-rule="evenodd" d="M228.6,393.1l.1,.3v16l-.1,.2l-.4,-.2v-16l.4,-.3Z" class="g2_1" />
<path d="M228.6,434.3v-8.2" class="g7_1" />
<path fill-rule="evenodd" d="M228.6,508.6l.1,.1v8l-.1,.1l-.4,-.1v-8l.4,-.1Z" class="g2_1" />
<path fill-rule="evenodd" d="M228.6,544.5l.1,.1v16.1l-.1,.3l-.4,-.3V544.6l.4,-.1Z" class="g2_1" />
<path fill-rule="evenodd" d="M228.6,577.5l.1,.1v7.8l-.1,.3l-.4,-.3v-7.8l.4,-.1Z" class="g2_1" />
<path fill-rule="evenodd" d="M228.6,598.1l.1,.1v16.1l-.1,.3l-.4,-.3V598.2l.4,-.1Z" class="g2_1" />
<path fill-rule="evenodd" d="M228.6,648.8l.1,.2v14l-.1,.2l-.4,-.2V649l.4,-.2Z" class="g2_1" />
<path fill-rule="evenodd" d="M228.6,671.4l.1,.3V696l-.1,.2l-.4,-.2V671.7l.4,-.3Z" class="g2_1" />
<path fill-rule="evenodd" d="M228.6,704.4l.1,.3v16.1l-.1,.1l-.4,-.1V704.7l.4,-.3Z" class="g2_1" />
<path fill-rule="evenodd" d="M228.6,720.9l.1,.2v49.2l-.1,.1l-.4,-.1V721.1l.4,-.2Z" class="g8_1" />
<path fill-rule="evenodd" d="M228.6,795.2l.1,.1v16.1l-.1,.3l-.4,-.3V795.3l.4,-.1Z" class="g2_1" />
<path fill-rule="evenodd" d="M228.6,828.2l.1,.1v16.1l-.1,.3l-.4,-.3V828.3l.4,-.1Z" class="g2_1" />
<path fill-rule="evenodd" d="M228.6,888.4l.1,.1v7.8l-.1,.3l-.4,-.3v-7.8l.4,-.1Z" class="g8_1" />
<path fill-rule="evenodd" d="M228.6,970.9l.1,.1v7.8l-.1,.3l-.4,-.3V971l.4,-.1Z" class="g2_1" />
<path fill-rule="evenodd" d="M228.6,1069.9l.1,.1v7.8l-.1,.3l-.4,-.3V1070l.4,-.1Z" class="g2_1" />
<path fill-rule="evenodd" d="M261.1,288.7l.2,.3v16.1l-.2,.1l-.2,-.1V289l.2,-.3Z" class="g2_1" />
<path d="M261.1,321.7v-8.2" class="g7_1" />
<path fill-rule="evenodd" d="M261.1,321.7l.2,.3v16.1l-.2,.1l-.2,-.1V322l.2,-.3Z" class="g2_1" />
<path fill-rule="evenodd" d="M261.1,888.4l.2,.1v7.8l-.2,.3l-.2,-.3v-7.8l.2,-.1Z" class="g8_1" />
<path fill-rule="evenodd" d="M261.1,995.6l.2,.2v16l-.2,.3l-.2,-.3v-16l.2,-.2Z" class="g2_1" />
<path fill-rule="evenodd" d="M261.1,1094.6l.2,.2v16l-.2,.2l-.2,-.2v-16l.2,-.2Z" class="g2_1" />
<path fill-rule="evenodd" d="M261.1,1169.9l.2,.3v49.1l-.2,.1l-.2,-.1v-49.1l.2,-.3Z" class="g2_1" />
<path fill-rule="evenodd" d="M300.4,165.1l.3,.2v7.8l-.3,.3l-.2,-.3v-7.8l.2,-.2Z" class="g2_1" />
<path fill-rule="evenodd" d="M300.4,198.1l.3,.2v16l-.3,.3l-.2,-.3v-16l.2,-.2Z" class="g2_1" />
<path fill-rule="evenodd" d="M300.4,247.5l.3,.3v32.5l-.3,.2l-.2,-.2V247.8l.2,-.3Z" class="g2_1" />
<path fill-rule="evenodd" d="M300.4,321.7l.3,.3v16.1l-.3,.1l-.2,-.1V322l.2,-.3Z" class="g2_1" />
<path fill-rule="evenodd" d="M300.4,371.2l.3,.3v37.9l-.3,.2l-.2,-.2V371.5l.2,-.3Z" class="g2_1" />
<path fill-rule="evenodd" d="M300.4,434.3l.3,.3v7.8l-.3,.2l-.2,-.2v-7.8l.2,-.3Z" class="g2_1" />
<path fill-rule="evenodd" d="M300.4,508.6l.3,.1v8l-.3,.1l-.2,-.1v-8l.2,-.1Z" class="g2_1" />
<path fill-rule="evenodd" d="M300.4,577.5l.3,.1v7.8l-.3,.3l-.2,-.3v-7.8l.2,-.1Z" class="g2_1" />
<path fill-rule="evenodd" d="M300.4,712.7l.3,.1v57.5l-.3,.1l-.2,-.1V712.8l.2,-.1Z" class="g2_1" />
<path fill-rule="evenodd" d="M300.4,888.4l.3,.1v16.1l-.3,.3l-.2,-.3V888.5l.2,-.1Z" class="g2_1" />
<path fill-rule="evenodd" d="M300.4,937.9l.3,.1v57.3l-.3,.3l-.2,-.3V938l.2,-.1Z" class="g2_1" />
<path fill-rule="evenodd" d="M300.4,1012.1l.3,.2v16l-.3,.3l-.2,-.3v-16l.2,-.2Z" class="g2_1" />
<path fill-rule="evenodd" d="M300.4,1045.1l.3,.2v7.8l-.3,.3l-.2,-.3v-7.8l.2,-.2Z" class="g2_1" />
<path fill-rule="evenodd" d="M300.4,1069.9l.3,.1v24.3l-.3,.3l-.2,-.3V1070l.2,-.1Z" class="g2_1" />
<path fill-rule="evenodd" d="M300.4,1111l.3,.3v16l-.3,.2l-.2,-.2v-16l.2,-.3Z" class="g2_1" />
<path fill-rule="evenodd" d="M333.1,90.9l.1,.1v16.1l-.1,.3l-.3,.1V90.6l.3,.3Z" class="g2_1" />
<path d="M333.1,321.7v-8.2" class="g7_1" />
<path fill-rule="evenodd" d="M333.1,321.7l.1,.3v16.1l-.1,.1l-.3,-.1V322l.3,-.3Z" class="g2_1" />
<path d="M333.1,434.3v-8.2" class="g7_1" />
<path fill-rule="evenodd" d="M333.1,544.5l.1,.1v16.1l-.1,.3l-.3,-.3V544.6l.3,-.1Z" class="g2_1" />
<path fill-rule="evenodd" d="M333.1,598.1l.1,.1v16.1l-.1,.3l-.3,-.3V598.2l.3,-.1Z" class="g2_1" />
<path fill-rule="evenodd" d="M333.1,696.2l-.3,-.2v-1.1h.4V696l-.1,.2Z" class="g2_1" />
<path fill-rule="evenodd" d="M333.2,694.3h-.4v-1.5h.4v1.5Z" class="g2_1" />
<path fill-rule="evenodd" d="M333.2,692.2h-.4v-1.7h.4v1.7Z" class="g2_1" />
<path fill-rule="evenodd" d="M333.2,690.1h-.4v-1.7h.4v1.7Z" class="g2_1" />
<path fill-rule="evenodd" d="M333.2,687.8h-.4v-1.7h.4v1.7Z" class="g2_1" />
<path fill-rule="evenodd" d="M333.2,685.6h-.4v-1.7h.4v1.7Z" class="g2_1" />
<path fill-rule="evenodd" d="M333.2,683.3h-.4v-1.5h.4v1.5Z" class="g2_1" />
<path fill-rule="evenodd" d="M333.2,681.2h-.4v-1.7h.4v1.7Z" class="g2_1" />
<path fill-rule="evenodd" d="M333.2,679.1h-.4v-1.7h.4v1.7Z" class="g2_1" />
<path fill-rule="evenodd" d="M333.2,676.8h-.4v-1.7h.4v1.7Z" class="g2_1" />
<path fill-rule="evenodd" d="M333.2,674.6h-.4v-1.7h.4v1.7Z" class="g2_1" />
<path fill-rule="evenodd" d="M333.1,671.4l.1,.3v.6h-.4v-.6l.3,-.3Z" class="g2_1" />
<path fill-rule="evenodd" d="M333.1,712.7l.1,.1v57.5l-.1,.1l-.3,-.1V712.8l.3,-.1Z" class="g2_1" />
<path fill-rule="evenodd" d="M333.1,995.6l.1,.2v16l-.1,.3l-.3,-.3v-16l.3,-.2Z" class="g2_1" />
<path fill-rule="evenodd" d="M333.1,1094.6l.1,.2v16l-.1,.2l-.3,-.2v-16l.3,-.2Z" class="g2_1" />
<path fill-rule="evenodd" d="M333.1,1169.9l.1,.3v49.1l-.1,.1l-.3,-.1v-49.1l.3,-.3Z" class="g2_1" />
<path fill-rule="evenodd" d="M365.6,321.7l.1,.3v16.1l-.1,.1l-.3,-.1V322l.3,-.3Z" class="g2_1" />
<path fill-rule="evenodd" d="M365.6,648.8l.1,.2v14l-.1,.2l-.3,-.2V649l.3,-.2Z" class="g2_1" />
<path d="M365.6,770.4V712.7" class="g7_1" />
<path fill-rule="evenodd" d="M395.7,90.9l.1,-.3v16.9l-.1,-.1l-.2,-.3V91l.2,-.1Z" class="g2_1" />
<path fill-rule="evenodd" d="M395.7,165.1l.1,-.3v8.7l-.1,-.1l-.2,-.3v-7.8l.2,-.2Z" class="g2_1" />
<path fill-rule="evenodd" d="M395.7,181.6l.1,-.3v33.5l-.1,-.2l-.2,-.3V181.8l.2,-.2Z" class="g2_1" />
<path fill-rule="evenodd" d="M395.7,222.9l.1,-.3v91.2l-.1,-.3l-.2,-.2V223l.2,-.1Z" class="g2_1" />
<path d="M395.7,321.7v-8.2" class="g7_1" />
<path fill-rule="evenodd" d="M395.7,321.7l.1,-.1v146l-.1,-.3l-.2,-.1V322l.2,-.3Z" class="g2_1" />
<path fill-rule="evenodd" d="M395.7,475.6l.1,-.2V770.6l-.1,-.2l-.2,-.1V475.9l.2,-.3Z" class="g2_1" />
<path fill-rule="evenodd" d="M395.7,786.9l.1,-.3V905l-.1,-.1l-.2,-.3V787.1l.2,-.2Z" class="g2_1" />
<path fill-rule="evenodd" d="M395.7,913.1l.1,-.3v240.9l-.1,-.3l-.2,-.1v-240l.2,-.2Z" class="g2_1" />
<path fill-rule="evenodd" d="M395.7,1161.7l.1,-.2v58.2l-.1,-.3l-.2,-.1V1162l.2,-.3Z" class="g2_1" />
<path fill-rule="evenodd" d="M395.7,1227.7l.1,-.2v76.7l-.1,-.1l-.2,-.3V1228l.2,-.3Z" class="g2_1" />
<path fill-rule="evenodd" d="M31.6,119.3v-.9l.2,-.2v-.1l.1,-.2v-.2h.2v-.1l.1,-.2v-.1h.2l.1,-.2V117h.2l.1,-.2H33l.2,-.1h.1v-.2h.5l.1,-.1H395.1l.1,.1h.5l.1,.2h.2v.1h.2l.1,.2h.2l.1,.1v.2h.2l.1,.1v.2l.2,.1l.1,.2v.3l.2,.2v.4l.1,.2v28.7l-.1,.1v.5l-.2,.2v.1l-.1,.2v.1l-.2,.2v.1h-.1l-.2,.2v.1h-.1l-.2,.2h-.1v.1H396l-.2,.2h-.1l-.2,.1h-.6l-.1,.2H34.2l-.1,-.2h-.6l-.2,-.1l-.1,-.2h-.4l-.1,-.1l-.2,-.2l-.1,-.1l-.2,-.2l-.1,-.1v-.2l-.2,-.1v-.2h-.1v-.1l-.2,-.2v-29Z" class="g0_1" />
<path d="M31.6,119.3v-.9l.2,-.2v-.1l.1,-.2v-.2h.2v-.1l.1,-.2v-.1h.2l.1,-.2V117h.2l.1,-.2H33l.2,-.1h.1v-.2h.5l.1,-.1H395.1l.1,.1h.5l.1,.2h.2v.1h.2l.1,.2h.2l.1,.1v.2h.2l.1,.1v.2l.2,.1l.1,.2v.3l.2,.2v.4l.1,.2v28.7l-.1,.1v.5l-.2,.2v.1l-.1,.2v.1l-.2,.2v.1h-.1l-.2,.2v.1h-.1l-.2,.2h-.1v.1H396l-.2,.2h-.1l-.2,.1h-.6l-.1,.2H34.2l-.1,-.2h-.6l-.2,-.1l-.1,-.2h-.4l-.1,-.1l-.2,-.2l-.1,-.1l-.2,-.2l-.1,-.1v-.2l-.2,-.1v-.2h-.1v-.1l-.2,-.2v-29Z" class="g9_1" />
<path fill-rule="evenodd" d="M32.8,92.8v-.4l.2,-.2v-.3h.2v-.3h.1v-.1h.2v-.2h.1v-.1h.3V91h.3v-.1h90.5l.1,.1h.2l.1,.2h.2v.1h.1v.2h.2l.1,.1v.2l.2,.1v.2h.1v.7l.2,8.3v.1l-.2,.2v.5l-.1,.1v.2l-.2,.1v.2h-.1v.1h-.2v.2h-.1l-.2,.1H125v.2h-.5l-.1,.1H34.5l-.1,-.1h-.3l-.2,-.2h-.1l-.2,-.1l-.1,-.2l-.2,-.1l-.1,-.2v-.1L33,102v-.1l-.2,-.2V92.8Z" class="g0_1" />
<path d="M32.8,92.8v-.4l.2,-.2v-.3h.2v-.3h.1v-.1h.2v-.2h.1v-.1h.3V91h.3v-.1h90.5l.1,.1h.2l.1,.2h.2v.1h.1v.2h.2l.1,.1v.2l.2,.1v.2h.1v.7l.2,8.3v.1l-.2,.2v.5l-.1,.1v.2l-.2,.1v.2h-.1v.1h-.2v.2h-.1l-.2,.1H125v.2h-.5l-.1,.1H34.5l-.1,-.1h-.3l-.2,-.2h-.1l-.2,-.1l-.1,-.2l-.2,-.1l-.1,-.2v-.1L33,102v-.1l-.2,-.2V92.8ZM31.2,180.2v-.3l.1,-.1v-.5l.2,-.1v-.5h.1l.2,-.1v-.2l.1,-.2l.2,-.1v-.2l.1,-.1h.2l.1,-.2l.2,-.1h.1l.2,-.2h.2l.1,-.1h.5l.1,-.2H394.8l.1,.2h.5l.1,.1h.2l.1,.2h.2l.2,.1l.1,.2h.2v.1l.1,.2l.2,.1l.1,.2v.2l.2,.1l.1,.2v.4l.2,.2v.7l.1,32.7v.3l-.1,.2v.6l-.2,.2v.1l-.1,.2v.1l-.2,.2v.1l-.1,.2l-.2,.1h-.1v.2l-.2,.1h-.1l-.2,.2l-.2,.1h-.1l-.2,.2h-.3l-.1,.1h-.8l-359.9,.2h-.2l-.1,-.2h-.6l-.2,-.1h-.1l-.2,-.2h-.2l-.1,-.1h-.2l-.1,-.2l-.2,-.1l-.1,-.2l-.2,-.1l-.1,-.2v-.1l-.2,-.2l-.1,-.1v-.3l-.2,-.2v-.5l-.1,-.1V180.2ZM31.2,221.5v-.3l.1,-.2v-.4l.2,-.2v-.1l.1,-.2V220l.2,-.2v-.1l.1,-.2l.2,-.2v-.1h.1l.2,-.2l.1,-.1h.2l.1,-.2l.2,-.1h.3l.2,-.2h.3l.1,-.1H394.8l.1,.1h.3l.2,.2h.3l.1,.1l.2,.2h.2l.1,.1l.2,.2l.1,.1l.2,.2v.2l.1,.1l.2,.2v.1l.1,.2v.3l.2,.1v.8l.1,244.4v.2l-.1,.1v.6l-.2,.2v.2l-.1,.1v.2l-.2,.1v.2l-.1,.1l-.2,.2h-.1v.1l-.2,.2l-.1,.1H396l-.2,.2h-.1l-.2,.1h-.1l-.2,.2h-.4l-.2,.1H34.1l-.2,-.1h-.4l-.2,-.2h-.1l-.2,-.1h-.2l-.1,-.2h-.2l-.1,-.1l-.2,-.2h-.1v-.1l-.2,-.2l-.1,-.1v-.2l-.2,-.1v-.2l-.1,-.1V467l-.2,-.2v-.4l-.1,-.2V221.5ZM31.2,1315.2v-.4l.1,-.2v-.3l.2,-.1v-.4h.1v-.1l.2,-.2l.1,-.1l.2,-.2l.1,-.1h.2l.1,-.2h.2l.1,-.1h.4l.1,-.2H395.4v.2h.4l.2,.1h.2v.2h.3v.1h.1l.2,.2v.1h.1v.2l.2,.1v.2h.1v.3l.2,.2v.7l.1,39.1h-.1v.8h-.2v.3l-.1,.2l-.2,.1v.2l-.1,.1l-.2,.2h-.1v.1h-.2l-.1,.2l-.2,.1h-.5v.2H33v-.2h-.3l-.2,-.1h-.1v-.2h-.2l-.1,-.1l-.2,-.2h-.1v-.1l-.2,-.2l-.1,-.1v-.4h-.2v-.4l-.1,-.2v-39.4ZM31.2,477.1v-.6l.1,-.3v-.3l.2,-.3v-.4l.1,-.3l.2,-.1v-.3l.1,-.3l.3,-.3l.2,-.3l.1,-.2l.2,-.3L33,473l.2,-.3l.3,-.2l.1,-.2l.3,-.1l.3,-.3h.3l.2,-.2l.3,-.1l.3,-.2h.3l.3,-.1h.3l.3,-.2H392l.3,.2h.3l.3,.1h.3l.4,.2l.3,.1l.3,.2h.3l.3,.3l.1,.1l.3,.2l.3,.2l.2,.3l.1,.1l.4,.3l.1,.2l.2,.3l.1,.3l.2,.3l.1,.3l.2,.1l.1,.3v.4l.2,.3v1.2l.1,289.2h-.1v1.2l-.2,.3v.3l-.1,.3l-.2,.3l-.1,.3l-.2,.3l-.1,.2l-.2,.3l-.1,.3l-.4,.2l-.1,.3l-.2,.1l-.3,.2l-.3,.3l-.1,.1l-.3,.2l-.3,.1l-.3,.2l-.3,.1h-.4l-.1,.2h-.3l-.3,.1H36.2l-.3,-.1h-.3l-.3,-.2H35l-.3,-.1l-.2,-.2l-.3,-.1l-.3,-.2l-.3,-.1l-.1,-.2l-.3,-.3l-.2,-.1l-.3,-.3l-.2,-.2l-.1,-.3l-.2,-.3l-.1,-.2l-.3,-.3v-.3l-.2,-.3l-.1,-.3v-.3l-.2,-.3v-.3l-.1,-.3V477.1ZM31.2,160.2v-.3h.1v-.3l.2,-.1v-.2h.1v-.1h.2V159h.4v-.2H396.5v.2h.3l.1,.2h.2v.1h.1v.3h.2v.6l.1,13.5h-.1v.6h-.2v.1l-.1,.2l-.2,.1h-.1v.2h-.6L32.5,175v-.1h-.6l-.1,-.2h-.2v-.1h-.1v-.2l-.2,-.1V174h-.1V160.2Z" class="g9_1" />
<image preserveAspectRatio="none" x="215" y="85" width="23" height="23" xlink:href="img/1.png" />
<path d="M31.2,1230.6v-.3l.1,-.3v-.5l.2,-.3v-.1l.1,-.2v-.2l.2,-.1l.1,-.2l.2,-.1l.1,-.2v-.1l.2,-.2l.1,-.1l.2,-.2h.1l.4,-.1l.1,-.2h.2l.1,-.1h.2l.1,-.2H394.6l.2,.2h.3l.1,.1h.2l.1,.2l.2,.1h.1l.2,.2l.2,.1l.1,.2l.2,.1l.1,.2l.2,.1l.1,.2v.1l.2,.2v.2l.1,.1v.3l.2,.2v.9l.1,71.3h-.1v.9l-.2,.2v.2l-.1,.3v.1l-.2,.2v.1l-.1,.2l-.2,.1l-.1,.2l-.2,.1l-.1,.2l-.2,.1h-.2l-.1,.2l-.2,.1h-.1l-.2,.2l-.1,.1h-.5l-.1,.2H34.2l-.1,-.2h-.5l-.1,-.1h-.2l-.1,-.2L33,1305h-.3l-.2,-.2l-.1,-.1l-.2,-.2v-.1l-.1,-.2l-.2,-.1l-.1,-.2v-.1l-.2,-.2l-.1,-.1v-.3l-.2,-.2v-.5l-.1,-.3v-71.6ZM31.2,1160.2v-.4l.1,-.1v-.3h.2v-.2h.1v-.1h.2v-.2h.3l.1,-.1H396.5v.1h.3l.1,.2h.2v.1h.1v.2l.2,.1v.7l.1,60.9l-.1,.2v.3l-.2,.1v.2h-.1v.1h-.2v.2h-.3l-.1,.1H32.1v-.1h-.3v-.2h-.2l-.1,-.1v-.2h-.2v-.3l-.1,-.1v-61.1ZM29.2,779.1v-.6l.1,-.1v-.3l.2,-.2v-.2l.1,-.1l.2,-.2l.1,-.1v-.2h.2l.1,-.1l.2,-.2h.2l.1,-.1H31l.2,-.2H393.7l.2,.2h.4v.1h.2l.1,.2h.2v.1h.1l.2,.2v.1h.1l.2,.2v.1l.1,.2v.2l.2,.1v.5l.1,.1V903.2l-.1,.1v.5l-.2,.1v.2l-.1,.1v.2l-.2,.2h-.1v.1l-.2,.2l-.1,.1h-.2l-.1,.2l-.2,.1h-.4v.2H31.2l-.2,-.2h-.3l-.1,-.1h-.2l-.2,-.2l-.1,-.1h-.2v-.2h-.1v-.1l-.2,-.2h-.1v-.3l-.2,-.2v-.1l-.1,-.2V779.1ZM31.2,914v-.4l.1,-.2V913l.2,-.2v-.1l.1,-.2v-.2l.2,-.1l.1,-.2v-.1l.2,-.2h.1l.2,-.1l.1,-.2l.2,-.1h.1l.2,-.2h.2l.1,-.1h.5l.1,-.2H394.6l.2,.2h.4l.2,.1h.1l.2,.2h.1l.2,.1h.2l.1,.2l.2,.1l.1,.2l.2,.1l.1,.2v.1l.2,.2v.2l.1,.1v.2l.2,.1v.9l.1,237.1h-.1v.8l-.2,.2v.3l-.1,.1v.2l-.2,.1v.2l-.1,.1l-.2,.2l-.1,.1l-.2,.2h-.1l-.2,.1l-.2,.2h-.1l-.2,.1h-.1l-.3,.2H33.5l-.2,-.2H33l-.2,-.1h-.1l-.2,-.2v-.1h-.1l-.2,-.2l-.1,-.1l-.2,-.2l-.1,-.1v-.2l-.2,-.1l-.1,-.2v-.3l-.2,-.1v-.5l-.1,-.2V914Z" class="g9_1" />
<path d="M146.2,971.2H135.8h20.9H146.2Z" class="g10_1" />
</svg>